<mxfile host="Electron" modified="2024-03-10T23:01:10.286Z" agent="Mozilla/5.0 (Windows NT 10.0; Win64; x64) AppleWebKit/537.36 (KHTML, like Gecko) draw.io/23.1.5 Chrome/120.0.6099.109 Electron/28.1.0 Safari/537.36" etag="cqlcDTDsph-MhjXCfTa1" version="23.1.5" type="device">
  <diagram name="Pagina-1" id="3QuVhLGY3SWfS8vUmjKk">
    <mxGraphModel dx="1360" dy="629" grid="1" gridSize="10" guides="1" tooltips="1" connect="1" arrows="1" fold="1" page="1" pageScale="1" pageWidth="827" pageHeight="1169" math="0" shadow="0">
      <root>
        <mxCell id="0" />
        <mxCell id="1" parent="0" />
        <mxCell id="YAIm2dUm0f_TiYFlOGLE-1" value="Edicola" style="swimlane;whiteSpace=wrap;html=1;" parent="1" vertex="1">
          <mxGeometry x="-40" y="50" width="140" height="80" as="geometry">
            <mxRectangle x="20" y="260" width="80" height="30" as="alternateBounds" />
          </mxGeometry>
        </mxCell>
        <mxCell id="YAIm2dUm0f_TiYFlOGLE-4" value="-indirizzo: string&lt;br&gt;-nome: string&lt;br&gt;-inventario: string" style="text;html=1;align=left;verticalAlign=middle;whiteSpace=wrap;rounded=0;" parent="YAIm2dUm0f_TiYFlOGLE-1" vertex="1">
          <mxGeometry y="20" width="140" height="60" as="geometry" />
        </mxCell>
        <mxCell id="1VZ1IEeaic-VV-bf44Wi-12" style="edgeStyle=orthogonalEdgeStyle;rounded=0;orthogonalLoop=1;jettySize=auto;html=1;exitX=0.5;exitY=0;exitDx=0;exitDy=0;endArrow=block;endFill=0;entryX=0.5;entryY=1;entryDx=0;entryDy=0;" edge="1" parent="1" source="YAIm2dUm0f_TiYFlOGLE-2" target="1VZ1IEeaic-VV-bf44Wi-17">
          <mxGeometry relative="1" as="geometry">
            <mxPoint x="380" y="370" as="targetPoint" />
            <Array as="points">
              <mxPoint x="260" y="420" />
              <mxPoint x="410" y="420" />
            </Array>
          </mxGeometry>
        </mxCell>
        <mxCell id="YAIm2dUm0f_TiYFlOGLE-2" value="Rivista" style="swimlane;whiteSpace=wrap;html=1;" parent="1" vertex="1">
          <mxGeometry x="170" y="500" width="180" height="130" as="geometry" />
        </mxCell>
        <mxCell id="YAIm2dUm0f_TiYFlOGLE-5" value="-codice : string&lt;br style=&quot;&quot;&gt;&lt;span style=&quot;&quot;&gt;-titolo : string&lt;/span&gt;&lt;br style=&quot;&quot;&gt;&lt;span style=&quot;&quot;&gt;-datapubblicazione : string&lt;/span&gt;&lt;br style=&quot;&quot;&gt;&lt;span style=&quot;&quot;&gt;-categoria: string&lt;/span&gt;&lt;br style=&quot;&quot;&gt;&lt;span style=&quot;&quot;&gt;-prezzo: float&lt;/span&gt;&lt;br style=&quot;&quot;&gt;&lt;span style=&quot;&quot;&gt;-quantita: int&lt;/span&gt;" style="text;html=1;align=left;verticalAlign=middle;whiteSpace=wrap;rounded=0;" parent="YAIm2dUm0f_TiYFlOGLE-2" vertex="1">
          <mxGeometry y="20" width="180" height="120" as="geometry" />
        </mxCell>
        <mxCell id="1VZ1IEeaic-VV-bf44Wi-11" style="edgeStyle=orthogonalEdgeStyle;rounded=0;orthogonalLoop=1;jettySize=auto;html=1;exitX=0.5;exitY=0;exitDx=0;exitDy=0;entryX=0.5;entryY=1;entryDx=0;entryDy=0;endArrow=block;endFill=0;" edge="1" parent="1" source="YAIm2dUm0f_TiYFlOGLE-3" target="1VZ1IEeaic-VV-bf44Wi-17">
          <mxGeometry relative="1" as="geometry">
            <Array as="points">
              <mxPoint x="550" y="420" />
              <mxPoint x="410" y="420" />
            </Array>
          </mxGeometry>
        </mxCell>
        <mxCell id="YAIm2dUm0f_TiYFlOGLE-3" value="Giornale" style="swimlane;whiteSpace=wrap;html=1;" parent="1" vertex="1">
          <mxGeometry x="470" y="500" width="160" height="120" as="geometry" />
        </mxCell>
        <mxCell id="YAIm2dUm0f_TiYFlOGLE-6" value="-codice : string&lt;br&gt;-titolo : string&lt;br&gt;-datapubblicazione : string&lt;br&gt;-categoria: string&lt;br&gt;-prezzo: float&lt;br&gt;-quantita: int&lt;br&gt;-redazione: string" style="text;html=1;align=left;verticalAlign=middle;whiteSpace=wrap;rounded=0;" parent="YAIm2dUm0f_TiYFlOGLE-3" vertex="1">
          <mxGeometry y="20" width="160" height="100" as="geometry" />
        </mxCell>
        <mxCell id="1VZ1IEeaic-VV-bf44Wi-13" style="edgeStyle=orthogonalEdgeStyle;rounded=0;orthogonalLoop=1;jettySize=auto;html=1;exitX=0;exitY=0.5;exitDx=0;exitDy=0;entryX=1;entryY=0.5;entryDx=0;entryDy=0;endArrow=diamondThin;endFill=0;" edge="1" parent="1" source="1VZ1IEeaic-VV-bf44Wi-7" target="YAIm2dUm0f_TiYFlOGLE-1">
          <mxGeometry relative="1" as="geometry" />
        </mxCell>
        <mxCell id="1VZ1IEeaic-VV-bf44Wi-7" value="&amp;lt;&amp;lt;abstract&amp;gt;&amp;gt;&lt;br&gt;Pubblicazione" style="swimlane;whiteSpace=wrap;html=1;startSize=30;" vertex="1" parent="1">
          <mxGeometry x="310" y="80" width="200" height="150" as="geometry" />
        </mxCell>
        <mxCell id="1VZ1IEeaic-VV-bf44Wi-8" value="-codice : string&lt;br&gt;-titolo : string&lt;br&gt;-datapubblicazione : string&lt;br&gt;-categoria: string&lt;br&gt;-prezzo: float&lt;br&gt;-quantita: int" style="text;html=1;align=left;verticalAlign=middle;whiteSpace=wrap;rounded=0;" vertex="1" parent="1VZ1IEeaic-VV-bf44Wi-7">
          <mxGeometry y="30" width="200" height="120" as="geometry" />
        </mxCell>
        <mxCell id="1VZ1IEeaic-VV-bf44Wi-14" value="+Rivista()" style="rounded=0;whiteSpace=wrap;html=1;align=left;" vertex="1" parent="1">
          <mxGeometry x="170" y="630" width="180" height="60" as="geometry" />
        </mxCell>
        <mxCell id="1VZ1IEeaic-VV-bf44Wi-15" value="+Giornale()" style="rounded=0;whiteSpace=wrap;html=1;align=left;" vertex="1" parent="1">
          <mxGeometry x="470" y="620" width="160" height="60" as="geometry" />
        </mxCell>
        <mxCell id="1VZ1IEeaic-VV-bf44Wi-17" value="+Pubblicazione()&lt;br&gt;+stampaDettagli()" style="rounded=0;whiteSpace=wrap;html=1;align=left;" vertex="1" parent="1">
          <mxGeometry x="310" y="230" width="200" height="60" as="geometry" />
        </mxCell>
        <mxCell id="1VZ1IEeaic-VV-bf44Wi-18" value="+aggiungiPub()&lt;br&gt;+stampaElenco()&lt;br&gt;+rimuoviPub()&lt;br&gt;+aggiornaQuantita()" style="rounded=0;whiteSpace=wrap;html=1;align=left;" vertex="1" parent="1">
          <mxGeometry x="-40" y="130" width="140" height="60" as="geometry" />
        </mxCell>
      </root>
    </mxGraphModel>
  </diagram>
</mxfile>
